<?xml version="1.0" encoding="UTF-8" standalone="no"?>
<svg
   xmlns:dc="http://purl.org/dc/elements/1.1/"
   xmlns:cc="http://creativecommons.org/ns#"
   xmlns:rdf="http://www.w3.org/1999/02/22-rdf-syntax-ns#"
   xmlns:svg="http://www.w3.org/2000/svg"
   xmlns="http://www.w3.org/2000/svg"
   xmlns:sodipodi="http://sodipodi.sourceforge.net/DTD/sodipodi-0.dtd"
   xmlns:inkscape="http://www.inkscape.org/namespaces/inkscape"
   width="24"
   height="24"
   version="1"
   id="svg7"
   sodipodi:docname="smplayer-panel.svg"
   inkscape:version="0.92.4 5da689c313, 2019-01-14">
  <metadata
     id="metadata11">
    <rdf:RDF>
      <cc:Work
         rdf:about="">
        <dc:format>image/svg+xml</dc:format>
        <dc:type
           rdf:resource="http://purl.org/dc/dcmitype/StillImage" />
      </cc:Work>
    </rdf:RDF>
  </metadata>
  <sodipodi:namedview
     pagecolor="#ffffff"
     bordercolor="#666666"
     borderopacity="1"
     objecttolerance="10"
     gridtolerance="10"
     guidetolerance="10"
     inkscape:pageopacity="0"
     inkscape:pageshadow="2"
     inkscape:window-width="640"
     inkscape:window-height="480"
     id="namedview9"
     showgrid="false"
     inkscape:zoom="22.000559"
     inkscape:cx="4.4320106"
     inkscape:cy="12"
     inkscape:current-layer="svg7" />
  <defs
     id="defs3">
    <style
       id="current-color-scheme"
       type="text/css">
   .ColorScheme-Text { color:#d3dae3; } .ColorScheme-Highlight { color:#5294e2; }
  </style>
  </defs>
  <path
     style="fill:#202020;fill-opacity:1"
     class="ColorScheme-Text"
     d="m12 4c-4.432 0-8 3.568-8 8s3.568 8 8 8 8-3.568 8-8-3.568-8-8-8zm0 1a2 2 0 0 1 2 2 2 2 0 0 1 -2 2 2 2 0 0 1 -2 -2 2 2 0 0 1 2 -2zm-5 5a2 2 0 0 1 2 2 2 2 0 0 1 -2 2 2 2 0 0 1 -2 -2 2 2 0 0 1 2 -2zm10 0a2 2 0 0 1 2 2 2 2 0 0 1 -2 2 2 2 0 0 1 -2 -2 2 2 0 0 1 2 -2zm-5.5117 0.63477a0.5 0.5 0 0 1 0.44531 0.25 0.5 0.5 0 0 1 -0.183 0.681 0.5 0.5 0 0 1 -0.684 -0.181 0.5 0.5 0 0 1 0.184 -0.684 0.5 0.5 0 0 1 0.238 -0.066zm1.366 0.365a0.5 0.5 0 0 1 0.44531 0.25 0.5 0.5 0 0 1 -0.18359 0.68359 0.5 0.5 0 0 1 -0.682 -0.184 0.5 0.5 0 0 1 0.181 -0.684 0.5 0.5 0 0 1 0.239 -0.066zm-1.7305 1a0.5 0.5 0 0 1 0.44336 0.25 0.5 0.5 0 0 1 -0.18164 0.68359 0.5 0.5 0 0 1 -0.685 -0.184 0.5 0.5 0 0 1 0.184 -0.684 0.5 0.5 0 0 1 0.238 -0.066zm1.3652 0.36523a0.5 0.5 0 0 1 0.44531 0.25 0.5 0.5 0 0 1 -0.184 0.684 0.5 0.5 0 0 1 -0.684 -0.184 0.5 0.5 0 0 1 0.184 -0.681 0.5 0.5 0 0 1 0.238 -0.069zm-0.489 2.635a2 2 0 0 1 2 2 2 2 0 0 1 -2 2 2 2 0 0 1 -2 -2 2 2 0 0 1 2 -2z"
     id="path5" />
</svg>
