<?xml version="1.0" encoding="UTF-8" standalone="no"?>
<svg
   xmlns:dc="http://purl.org/dc/elements/1.1/"
   xmlns:cc="http://creativecommons.org/ns#"
   xmlns:rdf="http://www.w3.org/1999/02/22-rdf-syntax-ns#"
   xmlns:svg="http://www.w3.org/2000/svg"
   xmlns="http://www.w3.org/2000/svg"
   xmlns:sodipodi="http://sodipodi.sourceforge.net/DTD/sodipodi-0.dtd"
   xmlns:inkscape="http://www.inkscape.org/namespaces/inkscape"
   width="24"
   height="24"
   version="1"
   id="svg7"
   sodipodi:docname="telegram-panel.svg"
   inkscape:version="0.92.4 5da689c313, 2019-01-14">
  <metadata
     id="metadata11">
    <rdf:RDF>
      <cc:Work
         rdf:about="">
        <dc:format>image/svg+xml</dc:format>
        <dc:type
           rdf:resource="http://purl.org/dc/dcmitype/StillImage" />
      </cc:Work>
    </rdf:RDF>
  </metadata>
  <sodipodi:namedview
     pagecolor="#ffffff"
     bordercolor="#666666"
     borderopacity="1"
     objecttolerance="10"
     gridtolerance="10"
     guidetolerance="10"
     inkscape:pageopacity="0"
     inkscape:pageshadow="2"
     inkscape:window-width="640"
     inkscape:window-height="480"
     id="namedview9"
     showgrid="false"
     inkscape:zoom="22.000559"
     inkscape:cx="4.4320106"
     inkscape:cy="12"
     inkscape:current-layer="svg7" />
  <defs
     id="defs3">
    <style
       id="current-color-scheme"
       type="text/css">
   .ColorScheme-Text { color:#d3dae3; } .ColorScheme-Highlight { color:#5294e2; }
  </style>
  </defs>
  <path
     style="fill:#202020;fill-opacity:1"
     class="ColorScheme-Text"
     d="m13.473 19.859c-0.44553-0.26953-0.72983-0.73845-1.968-3.2406-0.68429-1.3858-1.3366-2.6166-1.4486-2.7347-0.12554-0.13292-1.1581-0.68183-2.7003-1.435-3.047-1.4867-3.3562-1.723-3.3562-2.5661 0-0.39261 0.19187-0.76922 0.49267-0.96491 0.10338-0.06736 3.2892-1.2072 7.0794-2.5329 6.6597-2.3292 6.9073-2.4093 7.3622-2.3815 0.3937 0.024 0.50776 0.063999 0.69688 0.24436 0.28356 0.27043 0.41112 0.64532 0.35593 1.0461-0.05937 0.43079-4.8406 13.937-5.0185 14.176-0.37922 0.50982-1.0227 0.67781-1.496 0.39054z"
     id="path5" />
</svg>
