<?xml version="1.0" encoding="UTF-8" standalone="no"?>
<svg
   xmlns:dc="http://purl.org/dc/elements/1.1/"
   xmlns:cc="http://creativecommons.org/ns#"
   xmlns:rdf="http://www.w3.org/1999/02/22-rdf-syntax-ns#"
   xmlns:svg="http://www.w3.org/2000/svg"
   xmlns="http://www.w3.org/2000/svg"
   xmlns:sodipodi="http://sodipodi.sourceforge.net/DTD/sodipodi-0.dtd"
   xmlns:inkscape="http://www.inkscape.org/namespaces/inkscape"
   width="24"
   height="24"
   version="1"
   id="svg7"
   sodipodi:docname="telegram-mute-panel.svg"
   inkscape:version="0.92.4 5da689c313, 2019-01-14">
  <metadata
     id="metadata11">
    <rdf:RDF>
      <cc:Work
         rdf:about="">
        <dc:format>image/svg+xml</dc:format>
        <dc:type
           rdf:resource="http://purl.org/dc/dcmitype/StillImage" />
      </cc:Work>
    </rdf:RDF>
  </metadata>
  <sodipodi:namedview
     pagecolor="#ffffff"
     bordercolor="#666666"
     borderopacity="1"
     objecttolerance="10"
     gridtolerance="10"
     guidetolerance="10"
     inkscape:pageopacity="0"
     inkscape:pageshadow="2"
     inkscape:window-width="640"
     inkscape:window-height="480"
     id="namedview9"
     showgrid="false"
     inkscape:zoom="22.000559"
     inkscape:cx="4.4320106"
     inkscape:cy="12"
     inkscape:current-layer="svg7" />
  <defs
     id="defs3">
    <style
       id="current-color-scheme"
       type="text/css">
   .ColorScheme-Text { color:#d3dae3; } .ColorScheme-Highlight { color:#5294e2; }
  </style>
  </defs>
  <path
     style="fill:#202020;fill-opacity:1"
     class="ColorScheme-Text"
     d="m18.934 4.0048c-0.455-0.0278-0.702 0.0517-7.362 2.3809-3.7899 1.3256-6.9764 2.4658-7.0798 2.5332-0.3008 0.1957-0.4922 0.5722-0.4922 0.9648 0 0.84306 0.30851 1.0797 3.3555 2.5664 1.5421 0.75322 2.5756 1.3026 2.7012 1.4355 0.112 0.11815 0.76492 1.3486 1.4492 2.7344 1.2381 2.5021 1.5213 2.9707 1.9668 3.2402 0.4733 0.28727 1.1169 0.1192 1.4961-0.39062 0.178-0.239 4.958-13.743 5.017-14.174 0.056-0.4009-0.072-0.7766-0.355-1.047-0.189-0.1804-0.304-0.2202-0.697-0.2442zm-11.934 10.996a2 2 0 0 0 -2 2 2 2 0 0 0 2 2 2 2 0 0 0 2 -2 2 2 0 0 0 -2 -2z"
     id="path5" />
</svg>
