<?xml version="1.0" encoding="UTF-8" standalone="no"?>
<!-- Created with Inkscape (http://www.inkscape.org/) -->

<svg
   xmlns:dc="http://purl.org/dc/elements/1.1/"
   xmlns:cc="http://creativecommons.org/ns#"
   xmlns:rdf="http://www.w3.org/1999/02/22-rdf-syntax-ns#"
   xmlns:svg="http://www.w3.org/2000/svg"
   xmlns="http://www.w3.org/2000/svg"
   xmlns:xlink="http://www.w3.org/1999/xlink"
   xmlns:sodipodi="http://sodipodi.sourceforge.net/DTD/sodipodi-0.dtd"
   xmlns:inkscape="http://www.inkscape.org/namespaces/inkscape"
   width="200"
   height="200"
   id="svg18416"
   version="1.1"
   inkscape:version="0.92.2 2405546, 2018-03-11"
   sodipodi:docname="folder-system.svg">
  <defs
     id="defs18418">
    <linearGradient
       id="linearGradient903">
      <stop
         id="stop899"
         offset="0"
         style="stop-color:#03b6ec;stop-opacity:1" />
      <stop
         id="stop901"
         offset="1"
         style="stop-color:#13c0f7;stop-opacity:1" />
    </linearGradient>
    <linearGradient
       id="linearGradient19076">
      <stop
         style="stop-color:#3bc1f1;stop-opacity:1;"
         offset="0"
         id="stop19078" />
      <stop
         style="stop-color:#0e95c5;stop-opacity:1;"
         offset="1"
         id="stop19080" />
    </linearGradient>
    <linearGradient
       id="linearGradient18984">
      <stop
         style="stop-color:#78d9fd;stop-opacity:1;"
         offset="0"
         id="stop18986" />
      <stop
         style="stop-color:#7bdeff;stop-opacity:1;"
         offset="1"
         id="stop18988" />
    </linearGradient>
    <linearGradient
       id="linearGradient18973">
      <stop
         style="stop-color:#35cafc;stop-opacity:1;"
         offset="0"
         id="stop18975" />
      <stop
         id="stop18981"
         offset="0.5"
         style="stop-color:#50d4ff;stop-opacity:1;" />
      <stop
         style="stop-color:#4dcbf6;stop-opacity:1;"
         offset="1"
         id="stop18977" />
    </linearGradient>
    <linearGradient
       inkscape:collect="always"
       xlink:href="#linearGradient18973"
       id="linearGradient18979"
       x1="-9.9121208"
       y1="1081.4041"
       x2="-9.9121208"
       y2="1139.7776"
       gradientUnits="userSpaceOnUse" />
    <linearGradient
       inkscape:collect="always"
       xlink:href="#linearGradient18984"
       id="linearGradient18990"
       x1="-26.20083"
       y1="1070.1985"
       x2="-26.20083"
       y2="1082.5807"
       gradientUnits="userSpaceOnUse" />
    <linearGradient
       inkscape:collect="always"
       xlink:href="#linearGradient18973-9"
       id="linearGradient18979-8"
       x1="-9.9121208"
       y1="1081.4041"
       x2="-9.9121208"
       y2="1139.7776"
       gradientUnits="userSpaceOnUse" />
    <linearGradient
       id="linearGradient18973-9">
      <stop
         style="stop-color:#35cafc;stop-opacity:1;"
         offset="0"
         id="stop18975-4" />
      <stop
         id="stop18981-4"
         offset="0.5"
         style="stop-color:#50d4ff;stop-opacity:1;" />
      <stop
         style="stop-color:#4dcbf6;stop-opacity:1;"
         offset="1"
         id="stop18977-5" />
    </linearGradient>
    <linearGradient
       gradientTransform="translate(0,2.9382813e-5)"
       y2="1139.7776"
       x2="-9.9121208"
       y1="1081.4041"
       x1="-9.9121208"
       gradientUnits="userSpaceOnUse"
       id="linearGradient19047"
       xlink:href="#linearGradient18973-9"
       inkscape:collect="always" />
    <linearGradient
       inkscape:collect="always"
       xlink:href="#linearGradient19076"
       id="linearGradient19082"
       x1="-9.6167412"
       y1="1138.386"
       x2="-9.6167412"
       y2="1140.1899"
       gradientUnits="userSpaceOnUse" />
    <linearGradient
       inkscape:collect="always"
       xlink:href="#linearGradient18984"
       id="linearGradient19091"
       gradientUnits="userSpaceOnUse"
       x1="-26.20083"
       y1="1070.1985"
       x2="-26.20083"
       y2="1082.5807" />
    <linearGradient
       inkscape:collect="always"
       xlink:href="#linearGradient18973"
       id="linearGradient19093"
       gradientUnits="userSpaceOnUse"
       x1="-9.9121208"
       y1="1081.4041"
       x2="-9.9121208"
       y2="1139.7776" />
    <linearGradient
       inkscape:collect="always"
       xlink:href="#linearGradient19076"
       id="linearGradient19095"
       gradientUnits="userSpaceOnUse"
       x1="-9.6167412"
       y1="1138.386"
       x2="-9.6167412"
       y2="1140.1899" />
    <linearGradient
       inkscape:collect="always"
       xlink:href="#linearGradient18984"
       id="linearGradient19106"
       gradientUnits="userSpaceOnUse"
       x1="-26.20083"
       y1="1070.1985"
       x2="-26.20083"
       y2="1082.5807" />
    <linearGradient
       inkscape:collect="always"
       xlink:href="#linearGradient18973"
       id="linearGradient19108"
       gradientUnits="userSpaceOnUse"
       x1="-9.9121208"
       y1="1081.4041"
       x2="-9.9121208"
       y2="1139.7776" />
    <linearGradient
       inkscape:collect="always"
       xlink:href="#linearGradient19076"
       id="linearGradient19110"
       gradientUnits="userSpaceOnUse"
       x1="-9.6167412"
       y1="1138.386"
       x2="-9.6167412"
       y2="1140.1899" />
    <clipPath
       clipPathUnits="userSpaceOnUse"
       id="clipPath5833">
      <rect
         style="color:#000000;display:inline;overflow:visible;visibility:visible;opacity:0.16100003;fill:#dddedd;fill-opacity:1;fill-rule:nonzero;stroke:none;stroke-width:0.1;stroke-linecap:round;stroke-linejoin:miter;stroke-miterlimit:4;stroke-dasharray:none;stroke-dashoffset:0;stroke-opacity:1;marker:none;enable-background:accumulate"
         id="rect5835"
         width="162.85715"
         height="118.57143"
         x="15"
         y="1379.505"
         rx="2.8672099"
         ry="2.78354" />
    </clipPath>
    <linearGradient
       gradientTransform="matrix(0.4204684,0,0,0.4204684,402.47104,770.06425)"
       xlink:href="#1"
       id="3"
       x1="-661.85999"
       y1="588.27002"
       x2="-659.32001"
       y2="416.19"
       gradientUnits="userSpaceOnUse" />
    <linearGradient
       id="1">
      <stop
         stop-color="#289bf7"
         id="stop9" />
      <stop
         offset="1"
         stop-color="#71b9f1"
         id="stop11" />
    </linearGradient>
  </defs>
  <sodipodi:namedview
     id="base"
     pagecolor="#ffffff"
     bordercolor="#666666"
     borderopacity="1.0"
     inkscape:pageopacity="0.0"
     inkscape:pageshadow="2"
     inkscape:zoom="2.8"
     inkscape:cx="130.63883"
     inkscape:cy="99.818022"
     inkscape:document-units="px"
     inkscape:current-layer="layer1"
     showgrid="true"
     inkscape:window-width="1280"
     inkscape:window-height="749"
     inkscape:window-x="0"
     inkscape:window-y="24"
     inkscape:window-maximized="1"
     inkscape:pagecheckerboard="true">
    <inkscape:grid
       type="xygrid"
       id="grid888" />
  </sodipodi:namedview>
  <metadata
     id="metadata18421">
    <rdf:RDF>
      <cc:Work
         rdf:about="">
        <dc:format>image/svg+xml</dc:format>
        <dc:type
           rdf:resource="http://purl.org/dc/dcmitype/StillImage" />
        <dc:title></dc:title>
      </cc:Work>
    </rdf:RDF>
  </metadata>
  <g
     inkscape:label="Layer 1"
     inkscape:groupmode="layer"
     id="layer1"
     transform="translate(0,-852.36218)">
    <g
       id="g19098"
       transform="matrix(2.213863,0,0,2.213863,-104.07972,-1155.9649)">
      <g
         transform="translate(96.469568,-152.02796)"
         id="g19084">
        <path
           style="color:#000000;fill:url(#linearGradient19106);fill-opacity:1;fill-rule:nonzero;stroke:none;stroke-width:0.40000001;marker:none;visibility:visible;display:inline;overflow:visible;enable-background:accumulate"
           d="m -44.762384,1070.2064 c 7.37694,0 14.753879,0 22.130819,0 3.287123,0 4.652547,7.0711 7.727809,7.0711 16.8372138,0 34.684579,0 51.521792,0 1.818779,0 3.282995,1.4642 3.282995,3.283 l 0,50.5076 c 0,1.8188 -1.464216,-2.0203 -3.282995,-2.0203 l -81.38042,0 c -1.81878,0 -3.282996,-1.4642 -3.282996,-3.283 l 0,-52.2754 c 0,-1.8188 1.464216,-3.283 3.282996,-3.283 z"
           id="rect18953-5"
           inkscape:connector-curvature="0"
           sodipodi:nodetypes="sccssssssss" />
        <path
           id="rect18953"
           d="m -44.762384,1081.2778 81.38042,0 c 1.818779,0 3.282995,1.4642 3.282995,3.283 l 0,52.2754 c 0,1.8188 -1.464216,3.283 -3.282995,3.283 l -81.38042,0 c -1.81878,0 -3.282996,-1.4642 -3.282996,-3.283 l 0,-52.2754 c 0,-1.8188 1.464216,-3.283 3.282996,-3.283 z"
           style="color:#000000;fill:url(#linearGradient19108);fill-opacity:1;fill-rule:nonzero;stroke:none;stroke-width:0.40000001;marker:none;visibility:visible;display:inline;overflow:visible;enable-background:accumulate"
           inkscape:connector-curvature="0" />
        <path
           inkscape:connector-curvature="0"
           style="font-size:medium;font-style:normal;font-variant:normal;font-weight:normal;font-stretch:normal;text-indent:0;text-align:start;text-decoration:none;line-height:normal;letter-spacing:normal;word-spacing:normal;text-transform:none;direction:ltr;block-progression:tb;writing-mode:lr-tb;text-anchor:start;baseline-shift:baseline;opacity:0.97607655;color:#000000;fill:#3bc1f1;fill-opacity:1;fill-rule:nonzero;stroke:none;stroke-width:1px;marker:none;visibility:visible;display:inline;overflow:visible;enable-background:accumulate;font-family:Sans;-inkscape-font-specification:Sans"
           d="m -48.03125,1134.0809 0,1 87.9375,0 0,-1 -87.9375,0 z"
           id="path19074" />
        <path
           inkscape:connector-curvature="0"
           style="font-size:medium;font-style:normal;font-variant:normal;font-weight:normal;font-stretch:normal;text-indent:0;text-align:start;text-decoration:none;line-height:normal;letter-spacing:normal;word-spacing:normal;text-transform:none;direction:ltr;block-progression:tb;writing-mode:lr-tb;text-anchor:start;baseline-shift:baseline;opacity:0.97607655;color:#000000;fill:#3bc1f1;fill-opacity:1;fill-rule:nonzero;stroke:none;stroke-width:1px;marker:none;visibility:visible;display:inline;overflow:visible;enable-background:accumulate;font-family:Sans;-inkscape-font-specification:Sans"
           d="m -48.03125,1136.2997 0,0.5312 c 0,0.162 0.0088,0.3132 0.03125,0.4688 l 87.875,0 c 0.02244,-0.1556 0.03125,-0.3068 0.03125,-0.4688 l 0,-0.5312 -87.9375,0 z"
           id="path19072" />
        <path
           inkscape:connector-curvature="0"
           style="font-size:medium;font-style:normal;font-variant:normal;font-weight:normal;font-stretch:normal;text-indent:0;text-align:start;text-decoration:none;line-height:normal;letter-spacing:normal;word-spacing:normal;text-transform:none;direction:ltr;block-progression:tb;writing-mode:lr-tb;text-anchor:start;baseline-shift:baseline;opacity:0.97607655;color:#000000;fill:url(#linearGradient19110);fill-opacity:1;fill-rule:nonzero;stroke:none;stroke-width:1px;marker:none;visibility:visible;display:inline;overflow:visible;enable-background:accumulate;font-family:Sans;-inkscape-font-specification:Sans"
           d="m -47.75,1138.1747 c 0.511971,1.1442 1.661176,1.9375 3,1.9375 l 81.375,0 c 1.33942,0 2.488367,-0.7925 3,-1.9375 l -87.375,0 z"
           id="path18992" />
      </g>
    </g>
    <path
       inkscape:connector-curvature="0"
       style="fill:#00b8f8;fill-opacity:1;fill-rule:evenodd;stroke:none;stroke-width:4.34626102"
       id="Page-1"
       d="m 123.10903,974.94005 c 0,-0.52663 -0.8046,-1.14101 -2.41383,-1.84337 0.11714,-0.43867 0.22663,-0.84091 0.3292,-1.20677 0.10222,-0.36566 0.17562,-0.74606 0.21929,-1.14104 0.0445,-0.39503 0.0872,-0.70966 0.13168,-0.94357 0.0445,-0.23305 0.0516,-0.56339 0.02,-0.98752 -0.0286,-0.42414 -0.0445,-0.70962 -0.0445,-0.85584 0,-0.14561 -0.0516,-0.46814 -0.15351,-0.96536 -0.10227,-0.49757 -0.1608,-0.79732 -0.17568,-0.89987 -0.0143,-0.10196 -0.0872,-0.46812 -0.21935,-1.09702 -0.13162,-0.62918 -0.21201,-1.01692 -0.24149,-1.16316 -0.29262,-1.40439 -0.98013,-2.91099 -2.0627,-4.52044 -1.08255,-1.60916 -2.1358,-2.70619 -3.15989,-3.29145 0.70223,0.58526 1.53607,1.79937 2.50162,3.64274 2.54545,4.73977 3.33539,8.80665 2.36991,12.20065 -0.32187,1.17015 -1.05333,1.78454 -2.19439,1.84303 -0.90701,0.11656 -1.47024,-0.15434 -1.68964,-0.81176 -0.21936,-0.65846 -0.33649,-1.87988 -0.35107,-3.66466 -0.0143,-1.78479 -0.18298,-3.34999 -0.50476,-4.69579 -0.26329,-1.14105 -0.54856,-2.1504 -0.85576,-3.0284 -0.30721,-0.87769 -0.5925,-1.54333 -0.85581,-1.99688 -0.26338,-0.45322 -0.49009,-0.81184 -0.68024,-1.07521 -0.19024,-0.26218 -0.38036,-0.48269 -0.57055,-0.65831 -0.19022,-0.17477 -0.29987,-0.27677 -0.32916,-0.30704 -0.40959,-1.81398 -0.86311,-3.32084 -1.36048,-4.52045 -0.49741,-1.19956 -0.92898,-2.01871 -1.29463,-2.45773 -0.36578,-0.43867 -0.70959,-0.92167 -1.03141,-1.44837 -0.32181,-0.52633 -0.54127,-1.11157 -0.65827,-1.75536 -0.11715,-0.61436 -0.0286,-1.39711 0.2633,-2.34789 0.2926,-0.95081 0.35849,-1.67499 0.19755,-2.17254 -0.16111,-0.49726 -0.81206,-0.86313 -1.95316,-1.09704 -0.43885,-0.087 -1.08982,-0.35102 -1.95293,-0.79002 -0.86312,-0.43898 -1.38243,-0.67293 -1.55799,-0.70205 -0.23391,-0.0285 -0.39505,-0.40984 -0.48281,-1.14132 -0.0872,-0.73145 0.0289,-1.47748 0.35115,-2.23808 0.32181,-0.76089 0.84848,-1.15588 1.57987,-1.18501 1.0826,-0.087 1.82865,0.35101 2.23828,1.31669 0.40968,0.96536 0.46815,1.81392 0.17568,2.5454 -0.32184,0.5558 -0.35114,0.94352 -0.0872,1.16287 0.2633,0.21849 0.70221,0.22723 1.31663,0.0285 0.38032,-0.11651 0.57047,-0.64347 0.57047,-1.57971 v -1.62401 c -0.14624,-0.87772 -0.34375,-1.60916 -0.59244,-2.1944 -0.24882,-0.58521 -0.55594,-1.03121 -0.92162,-1.33853 -0.36572,-0.30732 -0.70955,-0.52668 -1.03139,-0.65835 -0.3218,-0.13108 -0.71678,-0.24177 -1.1849,-0.32917 -3.13065,0.23305 -4.43263,2.19437 -3.90597,5.8808 0,0.43901 -0.0143,0.65837 -0.0445,0.65837 -0.26328,-0.26217 -0.69484,-0.41685 -1.294646,-0.46084 -0.599765,-0.0442 -1.082543,-0.0349 -1.448274,0.0285 -0.365729,0.0584 -0.592483,0 -0.680251,-0.21846 0.02908,-1.6677 -0.204788,-2.98409 -0.702186,-3.94977 -0.497399,-0.96567 -1.155687,-1.46292 -1.974914,-1.49234 -0.789986,-0.0285 -1.397089,0.37316 -1.821343,1.20684 -0.424221,0.83401 -0.665597,1.70444 -0.724121,2.61153 -0.02908,0.43872 0.02038,0.97996 0.153516,1.62374 0.131672,0.64379 0.321832,1.1923 0.570519,1.64587 0.248771,0.45326 0.475466,0.65074 0.680275,0.5925 0.292585,-0.087 0.526649,-0.29276 0.702189,-0.61464 0.117104,-0.26219 0.01454,-0.38015 -0.307208,-0.35104 -0.204786,0 -0.431537,-0.21265 -0.680251,-0.63618 -0.24877,-0.42445 -0.387664,-0.9144 -0.416942,-1.4705 -0.02908,-0.6435 0.102537,-1.18476 0.395005,-1.62373 0.292583,-0.43869 0.789958,-0.64379 1.49214,-0.61436 0.497401,0 0.892376,0.30703 1.184962,0.92169 0.292585,0.61435 0.431536,1.18472 0.416943,1.71142 -0.01454,0.52667 -0.03638,0.84855 -0.06585,0.96562 -0.643664,0.43872 -1.097193,0.86317 -1.360501,1.27273 -0.233915,0.35099 -0.63635,0.69476 -1.206897,1.03119 -0.570514,0.33678 -0.870412,0.51941 -0.899686,0.54883 -0.380323,0.40958 -0.607105,0.80458 -0.680251,1.18474 -0.07312,0.38043 0.03638,0.64376 0.329143,0.79001 0.409602,0.23304 0.775328,0.5194 1.097189,0.85582 0.321833,0.33649 0.555897,0.61437 0.702188,0.83402 0.146235,0.21849 0.416944,0.40955 0.811919,0.57038 0.394975,0.16021 0.914311,0.25636 1.557975,0.28545 1.375155,0.0584 2.867297,-0.16022 4.476488,-0.65832 0.0587,-0.0285 0.39502,-0.13108 1.00941,-0.30703 0.6144,-0.17479 1.11915,-0.32921 1.51412,-0.46085 0.39495,-0.13109 0.82656,-0.32188 1.29468,-0.57068 0.46814,-0.2476 0.77535,-0.50451 0.92166,-0.76788 0.26329,-0.40953 0.55585,-0.52666 0.87768,-0.35099 0.14624,0.087 0.24153,0.21265 0.2852,0.37286 0.0445,0.16022 0,0.33647 -0.13169,0.52664 -0.1316,0.1894 -0.37301,0.32921 -0.72407,0.41691 -0.58521,0.17476 -1.41171,0.49023 -2.47961,0.94351 -1.06795,0.45356 -1.7336,0.73905 -1.99689,0.85583 -1.28737,0.55611 -2.311414,0.89258 -3.072149,1.00935 -0.73146,0.14567 -1.88712,0.11657 -3.467087,-0.087 -0.292584,-0.0584 -0.424224,-0.0285 -0.394977,0.087 0.02908,0.11657 0.277903,0.39504 0.746084,0.83401 0.731461,0.67294 1.711608,0.9948 2.940441,0.96542 0.497404,-0.0286 1.024048,-0.13112 1.579948,-0.30705 0.5559,-0.17477 1.08254,-0.38043 1.57996,-0.61435 0.49738,-0.23305 0.98741,-0.4903 1.47025,-0.76816 0.48272,-0.27679 0.92163,-0.52669 1.31659,-0.74605 0.39496,-0.2185 0.75339,-0.39499 1.07523,-0.52669 0.32185,-0.13106 0.57781,-0.16892 0.76802,-0.11067 0.19018,0.0584 0.31455,0.21844 0.37305,0.48269 0,0.0584 -0.0143,0.12528 -0.0445,0.1981 -0.0285,0.0727 -0.0872,0.1456 -0.17563,0.21842 -0.0872,0.0727 -0.1757,0.13984 -0.26338,0.19813 -0.0872,0.0584 -0.21204,0.1311 -0.37305,0.21849 -0.16079,0.087 -0.29254,0.15438 -0.39497,0.19803 -0.10221,0.0442 -0.24875,0.11657 -0.43884,0.21851 -0.19025,0.10195 -0.32921,0.16893 -0.41695,0.19811 -0.8192,0.40956 -1.80665,1.05331 -2.96237,1.93104 -1.15569,0.87765 -2.128549,1.50686 -2.918502,1.88731 -0.789983,0.38015 -1.506796,0.39475 -2.150486,0.0442 -0.614418,-0.32188 -1.536041,-1.38981 -2.764902,-3.20379 -0.643662,-0.90706 -1.009393,-1.229 -1.09716,-0.96561 -0.02908,0.087 -0.04402,0.23304 -0.04402,0.43897 0,0.73148 -0.219352,1.55791 -0.658317,2.47959 -0.438877,0.92168 -0.870441,1.7335 -1.294663,2.43554 -0.424255,0.70237 -0.731462,1.55093 -0.921655,2.54575 -0.190221,0.99445 -0.02038,1.91614 0.504712,2.76469 -0.672939,0.17485 -1.587252,1.49209 -2.742936,3.94981 -1.155711,2.45772 -1.850587,4.52046 -2.084648,6.18814 -0.05858,0.52665 -0.08039,1.53603 -0.06585,3.02816 0.01454,1.49226 -0.06585,2.35539 -0.241486,2.58939 -0.233917,0.7023 -0.658318,0.74592 -1.272732,0.13101 -0.936248,-0.90677 -1.462894,-2.28201 -1.579938,-4.12543 -0.05858,-0.81911 0,-1.6383 0.175656,-2.45742 0.117101,-0.55612 0.102246,-0.81942 -0.04404,-0.79004 l -0.175655,0.21851 c -1.053293,1.9016 -0.907002,4.33019 0.438876,7.28514 0.146235,0.35107 0.512024,0.76065 1.097193,1.22876 0.585169,0.46814 0.936246,0.76086 1.05329,0.87801 0.585172,0.67291 2.106557,1.99655 4.564248,3.9716 2.457693,1.97499 3.818191,3.09425 4.08153,3.35728 0.468122,0.43901 0.72412,0.99477 0.768018,1.66768 0.04404,0.67318 -0.160798,1.30221 -0.614414,1.88732 -0.453529,0.58532 -1.119128,0.92172 -1.996881,1.00938 0.233917,0.439 0.658315,1.08977 1.272732,1.95298 0.614415,0.86307 1.024015,1.65301 1.22883,2.37001 0.204786,0.71689 0.307209,1.74807 0.307209,3.09395 1.345875,-0.70212 1.448269,-2.04819 0.307178,-4.03751 -0.117104,-0.23306 -0.27062,-0.46811 -0.460813,-0.70232 -0.190219,-0.23309 -0.329142,-0.40954 -0.416912,-0.52675 -0.08766,-0.11639 -0.117103,-0.20381 -0.08766,-0.26207 0.08766,-0.14568 0.277904,-0.28552 0.570517,-0.41689 0.292583,-0.13109 0.585167,-0.0961 0.877754,0.11065 1.345875,1.52152 3.774267,2.04818 7.285217,1.58008 3.89141,-0.43904 6.48071,-1.7117 7.76803,-3.81839 0.67297,-1.11156 1.17038,-1.55059 1.49224,-1.31639 0.35103,0.17475 0.49732,0.93621 0.43881,2.28209 -0.0286,0.73137 -0.36568,2.07725 -1.0094,4.03739 -0.26332,0.67323 -0.35107,1.22172 -0.26332,1.64597 0.0872,0.42403 0.43891,0.65099 1.05332,0.68014 0.0872,-0.55591 0.29987,-1.68225 0.63633,-3.37914 0.33645,-1.69712 0.53396,-3.01386 0.59251,-3.95006 0.0587,-0.61438 -0.037,-1.68963 -0.28522,-3.22563 -0.24874,-1.53601 -0.35841,-2.95493 -0.32911,-4.25703 0.0286,-1.30189 0.36568,-2.33333 1.00938,-3.09399 0.43884,-0.52664 1.18494,-0.78996 2.23823,-0.78996 0.0285,-1.0825 0.53397,-1.85795 1.51411,-2.32605 0.98013,-0.46812 2.04074,-0.62164 3.18181,-0.46087 1.1411,0.16026 2.0188,0.48997 2.63321,0.98751 z M 95.547877,938.64524 c 0.08766,-0.49725 0.05131,-0.93625 -0.109823,-1.31639 -0.160797,-0.38045 -0.329141,-0.59981 -0.504709,-0.65838 -0.263337,-0.0584 -0.394979,0.0442 -0.394979,0.30704 0.05858,0.14566 0.131674,0.23305 0.219352,0.26221 0.292585,0 0.394977,0.21844 0.307208,0.65833 -0.08766,0.58522 0.02908,0.8777 0.351077,0.8777 0.08766,0 0.131672,-0.0442 0.131672,-0.13109 z m 10.576813,-0.70204 c 0,-0.32188 -0.073,-0.60707 -0.21935,-0.85584 -0.14624,-0.24761 -0.30718,-0.43144 -0.48275,-0.54852 -0.17569,-0.11654 -0.30721,-0.16022 -0.39502,-0.13109 -0.40959,0.0286 -0.51197,0.13109 -0.30717,0.30702 0.0587,0.0285 0.1171,0.0584 0.17567,0.087 0.4096,0.11653 0.67292,0.57067 0.78996,1.36068 0,0.087 0.11712,0.0584 0.35109,-0.087 z m 28.52665,49.70204 c 0.32182,0.36589 0.49739,0.71692 0.52666,1.05342 0.0285,0.3364 -0.006,0.66562 -0.10985,0.98749 -0.10253,0.32185 -0.32913,0.64377 -0.68025,0.9653 -0.35107,0.32193 -0.69486,0.60744 -1.03133,0.85583 -0.33652,0.24772 -0.77535,0.51941 -1.31662,0.81197 -0.54126,0.29276 -1.00208,0.5339 -1.38244,0.72414 -0.38035,0.18934 -0.84846,0.4172 -1.40437,0.68048 -0.55593,0.2622 -0.95093,0.45322 -1.185,0.57041 -1.11179,0.55584 -2.36257,1.37518 -3.75232,2.45774 -1.38979,1.08249 -2.49428,2.0187 -3.31353,2.80863 -0.49733,0.46805 -1.49211,0.75345 -2.9843,0.85585 -1.49217,0.1022 -2.79414,-0.1106 -3.90592,-0.63643 -0.52665,-0.26217 -0.95826,-0.60714 -1.29467,-1.03118 -0.33653,-0.42415 -0.57789,-0.79739 -0.7242,-1.11921 -0.14622,-0.32192 -0.46811,-0.60714 -0.96548,-0.85582 -0.49741,-0.2476 -1.18498,-0.38774 -2.06269,-0.41692 -1.28738,-0.029 -3.18913,-0.0444 -5.70533,-0.0444 -0.55591,0 -1.38975,0.0281 -2.5016,0.0674 -1.111786,0.0444 -1.960268,0.0814 -2.545439,0.11069 -1.287356,0.0294 -2.45035,0.24765 -3.489018,0.65831 -1.038673,0.40954 -1.821314,0.84858 -2.347962,1.31669 -0.526645,0.4681 -1.163025,0.88501 -1.909109,1.25048 -0.746086,0.36589 -1.528729,0.53399 -2.347957,0.50489 -0.84848,-0.029 -2.472288,-0.48263 -4.871457,-1.36041 -2.399198,-0.87795 -4.534997,-1.50682 -6.407522,-1.8873 -0.55592,-0.11661 -1.302005,-0.25635 -2.238252,-0.41691 -0.936272,-0.16016 -1.66771,-0.29234 -2.194353,-0.39496 -0.526651,-0.10211 -1.104506,-0.24175 -1.733539,-0.4168 -0.62907,-0.17474 -1.11913,-0.38772 -1.470233,-0.63658 -0.351078,-0.24762 -0.599798,-0.53385 -0.74609,-0.85587 -0.292584,-0.67283 -0.190212,-1.64556 0.307207,-2.91829 0.497402,-1.27292 0.760712,-2.06997 0.789957,-2.39184 0.02908,-0.4681 -0.02908,-1.05338 -0.175655,-1.75568 -0.146235,-0.70205 -0.292583,-1.32367 -0.438875,-1.86521 -0.146235,-0.54124 -0.212066,-1.07514 -0.197506,-1.60191 0.01454,-0.52662 0.168373,-0.92128 0.460839,-1.18469 0.409634,-0.35131 1.243458,-0.55609 2.50156,-0.61459 1.25811,-0.0584 2.135833,-0.2331 2.633234,-0.52666 0.877754,-0.52646 1.492169,-1.03858 1.843244,-1.5361 0.35111,-0.49725 0.526648,-1.24326 0.526648,-2.23801 0,0.83366 0.775334,-1.31673 0.658317,-2.01876 -0.08766,-0.46812 -0.117106,-1.02425 -0.08766,-1.66774 0.02908,-0.8485 0.175654,-1.60945 0.438875,-2.28234 0.263343,-0.67292 0.614417,-1.3604 1.053292,-2.06271 0.438879,-0.70203 0.76071,-1.31638 0.965496,-1.84307 0.233916,-0.61436 0.621756,-1.66774 1.163027,-3.16004 0.541266,-1.49209 0.972836,-2.63311 1.294665,-3.42316 0.32183,-0.78997 0.760706,-1.68226 1.316631,-2.67706 0.555893,-0.99479 1.126408,-1.78481 1.711575,-2.36998 3.218431,-4.18402 5.032399,-7.03644 5.442031,-8.55794 -0.351107,-3.27684 -0.585167,-7.81184 -0.702217,-13.605 -0.05858,-2.63336 0.292615,-4.8496 1.053292,-6.64896 0.76071,-1.79936 2.311402,-3.32813 4.652047,-4.58628 1.141064,-0.61435 2.662479,-0.92139 4.564247,-0.92139 1.55071,-0.0285 3.10138,0.16897 4.65204,0.59222 1.55068,0.42445 2.85266,1.0315 3.90597,1.82152 1.66768,1.22872 3.00628,3.00625 4.01567,5.33229 1.00938,2.32605 1.44099,4.48372 1.29469,6.47333 -0.14625,2.7796 0.2926,5.90995 1.31658,9.39188 0.9948,3.30599 2.94043,6.4952 5.83701,9.56728 1.60922,1.72622 3.06478,4.11082 4.36679,7.15382 1.30195,3.04263 2.1724,5.83683 2.61127,8.38222 0.23391,1.43375 0.3072,2.66976 0.21932,3.70851 -0.0872,1.03849 -0.26333,1.85073 -0.52662,2.4356 -0.26336,0.58528 0.38032,2.94074 0.78997,2.58939 0.0286,0.90713 0.14625,1.73352 0.35106,2.47956 0.20479,0.74637 0.41696,1.33891 0.63641,1.77759 0.21932,0.43899 0.5193,0.85582 0.89966,1.25084 0.38033,0.395 0.68757,0.67288 0.92162,0.83364 0.23391,0.16026 0.54858,0.35138 0.94363,0.5707 0.39495,0.2185 0.63632,0.35831 0.72407,0.41683 0.5852,0.35107 1.03867,0.70971 1.36054,1.07524 z" />
  </g>
</svg>
