<?xml version="1.0" encoding="UTF-8" standalone="no"?>
<!-- Created with Inkscape (http://www.inkscape.org/) -->

<svg
   xmlns:dc="http://purl.org/dc/elements/1.1/"
   xmlns:cc="http://creativecommons.org/ns#"
   xmlns:rdf="http://www.w3.org/1999/02/22-rdf-syntax-ns#"
   xmlns:svg="http://www.w3.org/2000/svg"
   xmlns="http://www.w3.org/2000/svg"
   xmlns:xlink="http://www.w3.org/1999/xlink"
   xmlns:sodipodi="http://sodipodi.sourceforge.net/DTD/sodipodi-0.dtd"
   xmlns:inkscape="http://www.inkscape.org/namespaces/inkscape"
   width="200"
   height="200"
   id="svg18416"
   version="1.1"
   inkscape:version="0.92.2 2405546, 2018-03-11"
   sodipodi:docname="folder-github.svg">
  <defs
     id="defs18418">
    <linearGradient
       id="linearGradient903">
      <stop
         id="stop899"
         offset="0"
         style="stop-color:#03b6ec;stop-opacity:1" />
      <stop
         id="stop901"
         offset="1"
         style="stop-color:#13c0f7;stop-opacity:1" />
    </linearGradient>
    <linearGradient
       id="linearGradient19076">
      <stop
         style="stop-color:#3bc1f1;stop-opacity:1;"
         offset="0"
         id="stop19078" />
      <stop
         style="stop-color:#0e95c5;stop-opacity:1;"
         offset="1"
         id="stop19080" />
    </linearGradient>
    <linearGradient
       id="linearGradient18984">
      <stop
         style="stop-color:#78d9fd;stop-opacity:1;"
         offset="0"
         id="stop18986" />
      <stop
         style="stop-color:#7bdeff;stop-opacity:1;"
         offset="1"
         id="stop18988" />
    </linearGradient>
    <linearGradient
       id="linearGradient18973">
      <stop
         style="stop-color:#35cafc;stop-opacity:1;"
         offset="0"
         id="stop18975" />
      <stop
         id="stop18981"
         offset="0.5"
         style="stop-color:#50d4ff;stop-opacity:1;" />
      <stop
         style="stop-color:#4dcbf6;stop-opacity:1;"
         offset="1"
         id="stop18977" />
    </linearGradient>
    <linearGradient
       inkscape:collect="always"
       xlink:href="#linearGradient18973"
       id="linearGradient18979"
       x1="-9.9121208"
       y1="1081.4041"
       x2="-9.9121208"
       y2="1139.7776"
       gradientUnits="userSpaceOnUse" />
    <linearGradient
       inkscape:collect="always"
       xlink:href="#linearGradient18984"
       id="linearGradient18990"
       x1="-26.20083"
       y1="1070.1985"
       x2="-26.20083"
       y2="1082.5807"
       gradientUnits="userSpaceOnUse" />
    <linearGradient
       inkscape:collect="always"
       xlink:href="#linearGradient18973-9"
       id="linearGradient18979-8"
       x1="-9.9121208"
       y1="1081.4041"
       x2="-9.9121208"
       y2="1139.7776"
       gradientUnits="userSpaceOnUse" />
    <linearGradient
       id="linearGradient18973-9">
      <stop
         style="stop-color:#35cafc;stop-opacity:1;"
         offset="0"
         id="stop18975-4" />
      <stop
         id="stop18981-4"
         offset="0.5"
         style="stop-color:#50d4ff;stop-opacity:1;" />
      <stop
         style="stop-color:#4dcbf6;stop-opacity:1;"
         offset="1"
         id="stop18977-5" />
    </linearGradient>
    <linearGradient
       gradientTransform="translate(0,2.9382813e-5)"
       y2="1139.7776"
       x2="-9.9121208"
       y1="1081.4041"
       x1="-9.9121208"
       gradientUnits="userSpaceOnUse"
       id="linearGradient19047"
       xlink:href="#linearGradient18973-9"
       inkscape:collect="always" />
    <linearGradient
       inkscape:collect="always"
       xlink:href="#linearGradient19076"
       id="linearGradient19082"
       x1="-9.6167412"
       y1="1138.386"
       x2="-9.6167412"
       y2="1140.1899"
       gradientUnits="userSpaceOnUse" />
    <linearGradient
       inkscape:collect="always"
       xlink:href="#linearGradient18984"
       id="linearGradient19091"
       gradientUnits="userSpaceOnUse"
       x1="-26.20083"
       y1="1070.1985"
       x2="-26.20083"
       y2="1082.5807" />
    <linearGradient
       inkscape:collect="always"
       xlink:href="#linearGradient18973"
       id="linearGradient19093"
       gradientUnits="userSpaceOnUse"
       x1="-9.9121208"
       y1="1081.4041"
       x2="-9.9121208"
       y2="1139.7776" />
    <linearGradient
       inkscape:collect="always"
       xlink:href="#linearGradient19076"
       id="linearGradient19095"
       gradientUnits="userSpaceOnUse"
       x1="-9.6167412"
       y1="1138.386"
       x2="-9.6167412"
       y2="1140.1899" />
    <linearGradient
       inkscape:collect="always"
       xlink:href="#linearGradient18984"
       id="linearGradient19106"
       gradientUnits="userSpaceOnUse"
       x1="-26.20083"
       y1="1070.1985"
       x2="-26.20083"
       y2="1082.5807" />
    <linearGradient
       inkscape:collect="always"
       xlink:href="#linearGradient18973"
       id="linearGradient19108"
       gradientUnits="userSpaceOnUse"
       x1="-9.9121208"
       y1="1081.4041"
       x2="-9.9121208"
       y2="1139.7776" />
    <linearGradient
       inkscape:collect="always"
       xlink:href="#linearGradient19076"
       id="linearGradient19110"
       gradientUnits="userSpaceOnUse"
       x1="-9.6167412"
       y1="1138.386"
       x2="-9.6167412"
       y2="1140.1899" />
    <clipPath
       clipPathUnits="userSpaceOnUse"
       id="clipPath5833">
      <rect
         style="color:#000000;display:inline;overflow:visible;visibility:visible;opacity:0.16100003;fill:#dddedd;fill-opacity:1;fill-rule:nonzero;stroke:none;stroke-width:0.1;stroke-linecap:round;stroke-linejoin:miter;stroke-miterlimit:4;stroke-dasharray:none;stroke-dashoffset:0;stroke-opacity:1;marker:none;enable-background:accumulate"
         id="rect5835"
         width="162.85715"
         height="118.57143"
         x="15"
         y="1379.505"
         rx="2.8672099"
         ry="2.78354" />
    </clipPath>
    <linearGradient
       gradientTransform="matrix(0.4204684,0,0,0.4204684,402.47104,770.06425)"
       xlink:href="#1"
       id="3"
       x1="-661.85999"
       y1="588.27002"
       x2="-659.32001"
       y2="416.19"
       gradientUnits="userSpaceOnUse" />
    <linearGradient
       id="1">
      <stop
         stop-color="#289bf7"
         id="stop9" />
      <stop
         offset="1"
         stop-color="#71b9f1"
         id="stop11" />
    </linearGradient>
    <linearGradient
       gradientTransform="matrix(0.12614,0,0,0.12614,203.51124,928.19445)"
       xlink:href="#1"
       id="3-3"
       x1="-423.69"
       y1="447.89001"
       x2="-422.39001"
       y2="290.14001"
       gradientUnits="userSpaceOnUse" />
    <linearGradient
       gradientTransform="translate(106.949,-23.09782)"
       xlink:href="#1"
       id="3-35"
       x1="-19.915001"
       y1="1048.7"
       x2="-19.996"
       y2="1025.51"
       gradientUnits="userSpaceOnUse" />
    <linearGradient
       gradientTransform="matrix(1.20001,0,0,1.20001,686.98001,1190.0422)"
       xlink:href="#1"
       id="3-9"
       x1="-481.73999"
       y1="-132.94"
       x2="-482.03"
       y2="-152.13"
       gradientUnits="userSpaceOnUse" />
    <linearGradient
       gradientTransform="matrix(0.12614,0,0,0.12614,160.51,913.26218)"
       xlink:href="#1"
       id="3-0"
       x1="-421.57999"
       y1="442.67001"
       x2="-425.56"
       y2="281.01999"
       gradientUnits="userSpaceOnUse" />
    <linearGradient
       gradientTransform="matrix(0.12614,0,0,0.12614,40.51,973.26219)"
       xlink:href="#1"
       id="3-6"
       x1="-421.57999"
       y1="461.35001"
       x2="-429.45999"
       y2="268.39999"
       gradientUnits="userSpaceOnUse" />
    <linearGradient
       gradientTransform="matrix(0.12614,0,0,0.12614,25.510005,923.26199)"
       xlink:href="#1"
       id="3-61"
       x1="-450.26001"
       y1="441.37"
       x2="-442.51001"
       y2="274.5"
       gradientUnits="userSpaceOnUse" />
    <linearGradient
       gradientTransform="matrix(0.4922,0,0,0.4922,-65.18,1012.2742)"
       xlink:href="#1"
       id="3-92"
       x1="167.58"
       y1="26.964001"
       x2="167.7"
       y2="-19.476"
       gradientUnits="userSpaceOnUse" />
    <linearGradient
       gradientTransform="matrix(0.12614,0,0,0.12614,27.280932,947.55206)"
       xlink:href="#1"
       id="3-2"
       x1="-429.17999"
       y1="455.73999"
       x2="-429.69"
       y2="268.01001"
       gradientUnits="userSpaceOnUse" />
    <linearGradient
       gradientTransform="matrix(0.12614,0,0,0.12614,120.51,953.2622)"
       xlink:href="#1"
       id="3-97"
       x1="-424.64999"
       y1="459.85999"
       x2="-425.09"
       y2="276.04999"
       gradientUnits="userSpaceOnUse" />
    <linearGradient
       gradientTransform="matrix(0.54165,0,0,0.54166,-14.491,1020.4122)"
       gradientUnits="userSpaceOnUse"
       y2="-27.875"
       x2="0"
       y1="22.120001"
       id="3-29"
       xlink:href="#1" />
    <linearGradient
       gradientTransform="matrix(1.5285575,0,0,1.5285575,-2260.4687,4679.2612)"
       xlink:href="#1"
       id="5"
       gradientUnits="userSpaceOnUse"
       x1="540.82001"
       y1="540.47998"
       x2="542.13"
       y2="493.92999" />
    <linearGradient
       xlink:href="#1"
       id="linearGradient44"
       gradientUnits="userSpaceOnUse"
       x1="540.82001"
       y1="540.47998"
       x2="542.13"
       y2="493.92999" />
  </defs>
  <sodipodi:namedview
     id="base"
     pagecolor="#ffffff"
     bordercolor="#666666"
     borderopacity="1.0"
     inkscape:pageopacity="0.0"
     inkscape:pageshadow="2"
     inkscape:zoom="2.8"
     inkscape:cx="118.17807"
     inkscape:cy="99.818022"
     inkscape:document-units="px"
     inkscape:current-layer="layer1"
     showgrid="true"
     inkscape:window-width="1280"
     inkscape:window-height="751"
     inkscape:window-x="0"
     inkscape:window-y="24"
     inkscape:window-maximized="1"
     inkscape:pagecheckerboard="true">
    <inkscape:grid
       type="xygrid"
       id="grid888" />
  </sodipodi:namedview>
  <metadata
     id="metadata18421">
    <rdf:RDF>
      <cc:Work
         rdf:about="">
        <dc:format>image/svg+xml</dc:format>
        <dc:type
           rdf:resource="http://purl.org/dc/dcmitype/StillImage" />
        <dc:title></dc:title>
      </cc:Work>
    </rdf:RDF>
  </metadata>
  <g
     inkscape:label="Layer 1"
     inkscape:groupmode="layer"
     id="layer1"
     transform="translate(0,-852.36218)">
    <g
       id="g19098"
       transform="matrix(2.213863,0,0,2.213863,-104.07972,-1155.9649)">
      <g
         transform="translate(96.469568,-152.02796)"
         id="g19084">
        <path
           style="color:#000000;fill:url(#linearGradient19106);fill-opacity:1;fill-rule:nonzero;stroke:none;stroke-width:0.40000001;marker:none;visibility:visible;display:inline;overflow:visible;enable-background:accumulate"
           d="m -44.762384,1070.2064 c 7.37694,0 14.753879,0 22.130819,0 3.287123,0 4.652547,7.0711 7.727809,7.0711 16.8372138,0 34.684579,0 51.521792,0 1.818779,0 3.282995,1.4642 3.282995,3.283 l 0,50.5076 c 0,1.8188 -1.464216,-2.0203 -3.282995,-2.0203 l -81.38042,0 c -1.81878,0 -3.282996,-1.4642 -3.282996,-3.283 l 0,-52.2754 c 0,-1.8188 1.464216,-3.283 3.282996,-3.283 z"
           id="rect18953-5"
           inkscape:connector-curvature="0"
           sodipodi:nodetypes="sccssssssss" />
        <path
           id="rect18953"
           d="m -44.762384,1081.2778 81.38042,0 c 1.818779,0 3.282995,1.4642 3.282995,3.283 l 0,52.2754 c 0,1.8188 -1.464216,3.283 -3.282995,3.283 l -81.38042,0 c -1.81878,0 -3.282996,-1.4642 -3.282996,-3.283 l 0,-52.2754 c 0,-1.8188 1.464216,-3.283 3.282996,-3.283 z"
           style="color:#000000;fill:url(#linearGradient19108);fill-opacity:1;fill-rule:nonzero;stroke:none;stroke-width:0.40000001;marker:none;visibility:visible;display:inline;overflow:visible;enable-background:accumulate"
           inkscape:connector-curvature="0" />
        <path
           inkscape:connector-curvature="0"
           style="font-size:medium;font-style:normal;font-variant:normal;font-weight:normal;font-stretch:normal;text-indent:0;text-align:start;text-decoration:none;line-height:normal;letter-spacing:normal;word-spacing:normal;text-transform:none;direction:ltr;block-progression:tb;writing-mode:lr-tb;text-anchor:start;baseline-shift:baseline;opacity:0.97607655;color:#000000;fill:#3bc1f1;fill-opacity:1;fill-rule:nonzero;stroke:none;stroke-width:1px;marker:none;visibility:visible;display:inline;overflow:visible;enable-background:accumulate;font-family:Sans;-inkscape-font-specification:Sans"
           d="m -48.03125,1134.0809 0,1 87.9375,0 0,-1 -87.9375,0 z"
           id="path19074" />
        <path
           inkscape:connector-curvature="0"
           style="font-size:medium;font-style:normal;font-variant:normal;font-weight:normal;font-stretch:normal;text-indent:0;text-align:start;text-decoration:none;line-height:normal;letter-spacing:normal;word-spacing:normal;text-transform:none;direction:ltr;block-progression:tb;writing-mode:lr-tb;text-anchor:start;baseline-shift:baseline;opacity:0.97607655;color:#000000;fill:#3bc1f1;fill-opacity:1;fill-rule:nonzero;stroke:none;stroke-width:1px;marker:none;visibility:visible;display:inline;overflow:visible;enable-background:accumulate;font-family:Sans;-inkscape-font-specification:Sans"
           d="m -48.03125,1136.2997 0,0.5312 c 0,0.162 0.0088,0.3132 0.03125,0.4688 l 87.875,0 c 0.02244,-0.1556 0.03125,-0.3068 0.03125,-0.4688 l 0,-0.5312 -87.9375,0 z"
           id="path19072" />
        <path
           inkscape:connector-curvature="0"
           style="font-size:medium;font-style:normal;font-variant:normal;font-weight:normal;font-stretch:normal;text-indent:0;text-align:start;text-decoration:none;line-height:normal;letter-spacing:normal;word-spacing:normal;text-transform:none;direction:ltr;block-progression:tb;writing-mode:lr-tb;text-anchor:start;baseline-shift:baseline;opacity:0.97607655;color:#000000;fill:url(#linearGradient19110);fill-opacity:1;fill-rule:nonzero;stroke:none;stroke-width:1px;marker:none;visibility:visible;display:inline;overflow:visible;enable-background:accumulate;font-family:Sans;-inkscape-font-specification:Sans"
           d="m -47.75,1138.1747 c 0.511971,1.1442 1.661176,1.9375 3,1.9375 l 81.375,0 c 1.33942,0 2.488367,-0.7925 3,-1.9375 l -87.375,0 z"
           id="path18992" />
      </g>
    </g>
    <path
       inkscape:connector-curvature="0"
       style="fill:#00b8f8;stroke:#00b8f8;stroke-width:1.37836707"
       d="m 128.83133,945.90344 c -2.84418,-4.99709 -6.70872,-8.95254 -11.57488,-11.8688 -4.87418,-2.91599 -10.1943,-4.37413 -15.96566,-4.37413 -5.770029,0 -11.092812,1.45814 -15.965666,4.37413 -4.872856,2.91626 -8.73204,6.87307 -11.576212,11.8688 -2.844173,4.99574 -4.266261,10.45311 -4.266261,16.36888 0,7.10569 2.021988,13.49641 6.067302,19.16736 4.043974,5.67614 9.270343,9.59722 15.675088,11.78228 0.745859,0.14141 1.297553,0.0431 1.656423,-0.29711 0.358871,-0.33941 0.538305,-0.76386 0.538305,-1.27314 0,-0.0841 -0.0066,-0.84902 -0.01997,-2.29325 -0.01464,-1.44456 -0.02023,-2.70407 -0.02023,-3.77867 l -0.952075,0.16865 c -0.607936,0.11428 -1.37388,0.16323 -2.299175,0.14972 -0.925291,0 -1.884061,-0.11162 -2.877648,-0.29733 -0.994919,-0.18227 -1.918875,-0.60783 -2.774536,-1.27314 -0.855662,-0.66541 -1.463597,-1.53625 -1.822468,-2.61217 l -0.41377,-0.9777 c -0.275848,-0.65024 -0.711044,-1.36892 -1.304248,-2.16434 -0.593207,-0.79277 -1.194446,-1.33084 -1.801041,-1.61433 l -0.289241,-0.21216 c -0.192822,-0.14141 -0.372259,-0.31207 -0.538302,-0.51062 -0.16603,-0.19855 -0.28924,-0.39577 -0.37226,-0.5941 -0.08302,-0.19866 -0.01464,-0.36155 0.207564,-0.4889 0.220947,-0.1279 0.621325,-0.19047 1.20114,-0.19047 l 0.827542,0.1279 c 0.551694,0.11428 1.234618,0.45192 2.050107,1.01856 0.81415,0.56553 1.483683,1.30193 2.008596,2.20699 0.636055,1.16107 1.400663,2.04552 2.299175,2.65458 0.897173,0.60938 1.801042,0.91324 2.712945,0.91324 0.910563,0 1.697933,-0.0708 2.360771,-0.21217 0.662836,-0.14152 1.284162,-0.35314 1.863978,-0.63662 0.24907,-1.89748 0.925291,-3.35422 2.028679,-4.3741 -1.573399,-0.16865 -2.98879,-0.42601 -4.244831,-0.76409 -1.256045,-0.33952 -2.553597,-0.89121 -3.892661,-1.65651 -1.339065,-0.76386 -2.450488,-1.71276 -3.334273,-2.84494 -0.883781,-1.13228 -1.608215,-2.61926 -2.174638,-4.45926 -0.566425,-1.84012 -0.848967,-3.96339 -0.848967,-6.36903 0,-3.42552 1.091337,-6.34151 3.272673,-8.74716 -1.021706,-2.57511 -0.925295,-5.46254 0.289238,-8.66227 0.800759,-0.25572 1.98851,-0.0625 3.56191,0.57373 1.573401,0.63658 2.726337,1.18283 3.458806,1.63468 0.732466,0.45186 1.318979,0.83517 1.760869,1.14611 2.568324,-0.73668 5.218338,-1.10366 7.951362,-1.10366 2.73303,0 5.38303,0.36833 7.9527,1.10366 l 1.57341,-1.01879 c 1.0766,-0.67901 2.34737,-1.30198 3.80963,-1.86864 1.46361,-0.56556 2.58172,-0.72172 3.35569,-0.46709 1.24267,3.19973 1.35246,6.08716 0.33075,8.66227 2.18135,2.40701 3.27268,5.32164 3.27268,8.74716 0,2.40701 -0.28389,4.53599 -0.84896,6.38963 -0.56644,1.85506 -1.29757,3.3407 -2.19474,4.45904 -0.89717,1.11865 -2.01662,2.05937 -3.35435,2.82323 -1.33907,0.76386 -2.63661,1.31688 -3.89266,1.6564 -1.25604,0.33952 -2.67144,0.59576 -4.24483,0.76553 1.43547,1.27314 2.15322,3.28301 2.15322,6.0295 v 8.95794 c 0,0.50928 0.17273,0.93373 0.51821,1.27314 0.34548,0.33952 0.89047,0.43963 1.63634,0.2971 6.40608,-2.17962 11.6311,-6.10757 15.67509,-11.7836 4.04397,-5.67504 6.06729,-12.0661 6.06729,-19.1674 -1.3e-4,-5.9144 -1.42476,-11.37043 -4.26759,-16.36752 z"
       id="path22" />
  </g>
</svg>
