<?xml version="1.0" encoding="UTF-8" standalone="no"?>
<svg
   xmlns:dc="http://purl.org/dc/elements/1.1/"
   xmlns:cc="http://creativecommons.org/ns#"
   xmlns:rdf="http://www.w3.org/1999/02/22-rdf-syntax-ns#"
   xmlns:svg="http://www.w3.org/2000/svg"
   xmlns="http://www.w3.org/2000/svg"
   xmlns:xlink="http://www.w3.org/1999/xlink"
   version="1.1"
   id="svg2"
   height="200"
   width="200">
  <defs
     id="defs4">
    <linearGradient
       id="linearGradient3912">
      <stop
         id="stop3914"
         offset="0"
         style="stop-color:#f4f3f3;stop-opacity:1;" />
      <stop
         id="stop3916"
         offset="1"
         style="stop-color:#f4f3f3;stop-opacity:1;" />
    </linearGradient>
    <linearGradient
       id="linearGradient3843">
      <stop
         id="stop3845"
         offset="0"
         style="stop-color:#16d4ff;stop-opacity:1;" />
      <stop
         id="stop3847"
         offset="1"
         style="stop-color:#1f73f3;stop-opacity:1;" />
    </linearGradient>
    <linearGradient
       gradientTransform="matrix(1,0,0,0.94925765,0,857.37036)"
       gradientUnits="userSpaceOnUse"
       y2="189.08974"
       x2="71.875"
       y1="9.765625"
       x1="71.875"
       id="linearGradient3849"
       xlink:href="#linearGradient3843" />
    <linearGradient
       gradientTransform="matrix(1,0,0,0.94925765,0,857.37036)"
       gradientUnits="userSpaceOnUse"
       y2="193.3853"
       x2="172.24121"
       y1="4.0527329"
       x1="172.24121"
       id="linearGradient3918"
       xlink:href="#linearGradient3912" />
    <linearGradient
       gradientUnits="userSpaceOnUse"
       y2="193.3853"
       x2="172.24121"
       y1="4.0527329"
       x1="172.24121"
       id="linearGradient3918-1"
       xlink:href="#linearGradient3912-0" />
    <linearGradient
       id="linearGradient3912-0">
      <stop
         id="stop3914-1"
         offset="0"
         style="stop-color:#f4f3f3;stop-opacity:1;" />
      <stop
         id="stop3916-9"
         offset="1"
         style="stop-color:#f4f3f3;stop-opacity:1;" />
    </linearGradient>
  </defs>
  <metadata
     id="metadata7">
    <rdf:RDF>
      <cc:Work
         rdf:about="">
        <dc:format>image/svg+xml</dc:format>
        <dc:type
           rdf:resource="http://purl.org/dc/dcmitype/StillImage" />
        <dc:title></dc:title>
      </cc:Work>
    </rdf:RDF>
  </metadata>
  <g
     transform="translate(0,-852.36218)"
     id="layer1">
    <path
       id="rect3772"
       d="m 17,861.21745 90.51172,0 c 0,0 65.92578,7.19727 65.92578,16.13738 l 0,147.40287 c 0,8.9401 -49.61719,16.1374 -49.61719,16.1374 l -106.82031,0 c -9.418,0 -17,-7.1973 -17,-16.1374 L 0,877.35483 c 0,-8.94011 7.582,-16.13738 17,-16.13738 z"
       style="fill:#00c800;fill-opacity:1" />
    <path
       id="path3811-5"
       d="m 105.125,861.22672 c -5.63845,10.35062 -20,45.13796 -20,92.25598 l 25.34375,0 c 0,0 -1.33096,58.8834 7.40625,87.4207 l 63.125,0 c 9.418,0 17,-7.1973 17,-16.1374 l 0,-147.4019 c 0,-8.94011 -7.582,-16.13738 -17,-16.13738 z"
       style="fill:#000000;fill-opacity:0.31073447;stroke:none" />
    <path
       id="path3811"
       d="m 107.125,861.22672 c -5.63845,10.35062 -20,41.34093 -20,88.45895 l 27.34375,0 c 0,0 -1.33096,62.68043 7.40625,91.21773 l 61.125,0 c 9.418,0 17,-7.1973 17,-16.1374 l 0,-147.4019 c 0,-8.94011 -7.582,-16.13738 -17,-16.13738 l -75.875,0 z"
       style="fill:url(#linearGradient3918);fill-opacity:1;stroke:none" />
    <path
       id="path3873"
       d="m 56.054687,913.50314 0,10.00705"
       style="fill:none;stroke:#000000;stroke-width:9.13434315;stroke-linecap:round;stroke-linejoin:miter;stroke-miterlimit:4;stroke-opacity:1;stroke-dasharray:none" />
    <path
       id="path3873-4"
       d="m 144.02871,913.50314 0,10.00705"
       style="fill:none;stroke:#000000;stroke-width:9.13434315;stroke-linecap:round;stroke-linejoin:miter;stroke-miterlimit:4;stroke-opacity:1;stroke-dasharray:none" />
    <path
       id="path3893"
       d="m 41.40625,977.51078 c 0,0 17.1875,23.17522 58.98438,23.17522 39.25891,0 58.57029,-23.60203 58.57029,-23.60203"
       style="color:#000000;fill:none;stroke:#000000;stroke-width:9.13434315;stroke-linecap:round;stroke-linejoin:miter;stroke-miterlimit:4;stroke-opacity:1;stroke-dasharray:none;stroke-dashoffset:0;marker:none;visibility:visible;display:inline;overflow:visible;enable-background:accumulate" />
  </g>
</svg>
