<?xml version="1.0" encoding="UTF-8" standalone="no"?>
<svg
   xmlns:dc="http://purl.org/dc/elements/1.1/"
   xmlns:cc="http://creativecommons.org/ns#"
   xmlns:rdf="http://www.w3.org/1999/02/22-rdf-syntax-ns#"
   xmlns:svg="http://www.w3.org/2000/svg"
   xmlns="http://www.w3.org/2000/svg"
   xmlns:sodipodi="http://sodipodi.sourceforge.net/DTD/sodipodi-0.dtd"
   xmlns:inkscape="http://www.inkscape.org/namespaces/inkscape"
   width="48"
   height="48"
   version="1"
   id="svg28"
   sodipodi:docname="waterfox.svg"
   inkscape:version="0.92.4 5da689c313, 2019-01-14">
  <metadata
     id="metadata34">
    <rdf:RDF>
      <cc:Work
         rdf:about="">
        <dc:format>image/svg+xml</dc:format>
        <dc:type
           rdf:resource="http://purl.org/dc/dcmitype/StillImage" />
      </cc:Work>
    </rdf:RDF>
  </metadata>
  <defs
     id="defs32" />
  <sodipodi:namedview
     pagecolor="#ffffff"
     bordercolor="#666666"
     borderopacity="1"
     objecttolerance="10"
     gridtolerance="10"
     guidetolerance="10"
     inkscape:pageopacity="0"
     inkscape:pageshadow="2"
     inkscape:window-width="640"
     inkscape:window-height="480"
     id="namedview30"
     showgrid="false"
     inkscape:zoom="10.615497"
     inkscape:cx="19.721296"
     inkscape:cy="24"
     inkscape:current-layer="svg28" />
  <path
     style="fill:none;stroke:#00a5f5;stroke-width:10;stroke-linecap:round;stroke-linejoin:round"
     d="m 7.029219,20.000613 8,18"
     id="path6" />
  <path
     style="fill:none;stroke:#7369e8;stroke-width:10;stroke-linecap:round;stroke-linejoin:round"
     d="m 33.029219,38.000613 8,-18 v 0 0"
     id="path8" />
  <path
     style="opacity:0.1;fill:#ffffff"
     d="M 41.074219 14.935547 A 5.0005 5.0005 0 0 0 36.460938 17.970703 L 28.460938 35.970703 A 5.0005 5.0005 0 0 0 28.013672 38.605469 A 5.0005 5.0005 0 0 1 28.460938 36.970703 L 36.460938 18.970703 A 5.0005 5.0005 0 0 1 41.074219 15.935547 A 5.0005 5.0005 0 0 1 46.027344 20.431641 A 5.0005 5.0005 0 0 0 41.074219 14.935547 z M 6.8339844 14.9375 A 5.0005 5.0005 0 0 0 2.03125 20.433594 A 5.0005 5.0005 0 0 1 6.8339844 15.9375 A 5.0005 5.0005 0 0 1 11.597656 18.970703 L 19.597656 36.970703 A 5.0005 5.0005 0 0 1 20.044922 38.607422 A 5.0005 5.0005 0 0 0 19.597656 35.970703 L 11.597656 17.970703 A 5.0005 5.0005 0 0 0 6.8339844 14.9375 z"
     id="path10" />
  <path
     style="fill:#00aeda"
     d="m 23.591251,18.503752 c 7.161696,6.925828 0.77006,-0.980543 2.11832,-0.524142 3.270574,1.081674 0.305561,-1.257358 1.782049,0.411015 2.017788,2.638401 3.594538,5.9318 5.023437,8.478516 l -0.01563,0.02539 3.707032,6.589844 c 1.335819,1.425942 2.830267,0.969788 4.248047,0.144531 l -2.845704,6.402344 c -1.671589,3.755665 -6.908978,4.002063 -8.925781,0.419922 l -8.929687,-15.875 -0.164063,-0.25586 c -1.785025,-2.852816 3.209096,-0.617697 0.811168,-2.787498 -0.268246,-0.237323 0.56131,-0.52924 0.727207,-0.935488 0.672785,-1.64752 0.578024,0.829356 1.994557,0.533069 0.295195,-0.04065 -0.323442,0.0053 0,0 z"
     id="path12" />
  <path
     style="opacity:0.2;fill:#ffffff"
     d="M 27.050781 17.775391 C 27.036354 17.799565 27.12803 17.939726 27.308594 18.164062 C 27.376832 18.001165 27.08094 17.724857 27.050781 17.775391 z M 27.308594 18.164062 C 27.246259 18.312867 26.879996 18.367756 25.708984 17.980469 C 25.335765 17.85413 25.564494 18.375775 25.925781 19.039062 C 26.889281 19.333374 27.250726 19.302728 27.308594 19.166016 C 26.750253 18.472321 27.410464 18.925348 27.308594 19.166016 C 27.368782 19.240795 27.399907 19.288305 27.492188 19.392578 C 29.509975 22.030979 31.086726 25.324378 32.515625 27.871094 L 32.5 27.896484 L 36.207031 34.486328 C 37.360739 35.717873 38.632321 35.542951 39.871094 34.941406 L 40.455078 33.628906 C 39.037298 34.454163 37.54285 34.910317 36.207031 33.484375 L 32.5 26.894531 L 32.515625 26.869141 C 31.086726 24.322425 29.509975 21.029026 27.492188 18.390625 C 27.399907 18.286352 27.368782 18.238841 27.308594 18.164062 z M 23.591797 18.503906 L 23.125 21.117188 C 23.195716 21.112592 23.259435 21.112078 23.123047 21.130859 C 21.706514 21.427146 21.799738 18.950136 21.126953 20.597656 C 20.961056 21.003904 20.132145 21.29588 20.400391 21.533203 C 20.585555 21.700752 20.714823 21.833736 20.818359 21.953125 C 20.950518 21.844071 21.07356 21.730358 21.126953 21.599609 C 21.799738 19.952089 21.706514 22.4291 23.123047 22.132812 C 22.949044 22.135664 23.04266 22.124492 23.125 22.119141 L 23.591797 19.505859 C 27.708471 23.486953 27.322942 22.538146 26.527344 21.123047 C 26.031374 20.778777 25.142611 20.003644 23.591797 18.503906 z M 23.125 22.119141 L 23.123047 22.132812 C 23.259435 22.114031 23.195716 22.114545 23.125 22.119141 z M 23.123047 21.130859 L 23.125 21.117188 C 23.04266 21.122538 22.949044 21.133711 23.123047 21.130859 z M 20.507812 22.638672 C 19.813648 22.709847 18.791916 22.704483 19.375 23.925781 C 19.999676 23.391265 22.01014 24.05582 20.507812 22.638672 z"
     id="path14" />
  <path
     style="fill:#20ebff"
     d="m 30.734375,13.062851 c -0.970326,-0.01601 -2.083381,0.145161 -3.431641,0.601562 -3.270574,1.081674 -5.277418,3.057839 -6.753906,4.726212 -2.017788,2.638401 -3.594538,5.9318 -5.023437,8.478516 l 0.01563,0.02539 -3.707032,6.589844 c -1.335819,1.425942 -2.8302667,0.969788 -4.2480465,0.144531 l 2.8457035,6.402344 c 1.671589,3.755665 6.908978,4.002063 8.925781,0.419922 l 8.929687,-15.875 0.164063,-0.25586 c 1.785025,-2.852816 3.826551,-5.683363 6.224479,-7.853164 0.268246,-0.237323 0.470585,-0.623049 0.304688,-1.029297 -0.672785,-1.64752 -1.90365,-2.008401 -3.320183,-2.304688 -0.295195,-0.04065 -0.602339,-0.06497 -0.925781,-0.07031 z"
     id="path18" />
  <circle
     style="fill:#20ebff"
     cx="33"
     cy="7"
     r="2"
     id="circle20" />
  <path
     style="fill:#20ebff"
     d="m 24.834164,6.0000024 c -0.657678,7.679e-4 -1.355752,0.1872189 -2.06003,0.5624827 -2.628606,1.4006272 -3.924015,3.8259369 -3.760341,7.0405869 0.04132,0.812397 0.169303,1.684134 0.284233,1.93709 C 19.412965,15.793117 19.604795,16 19.724153,16 c 0.119357,0 0.62659,-0.440311 1.127409,-0.978464 0.681084,-0.731865 1.271494,-1.157839 2.342173,-1.690393 2.861359,-1.423226 3.122519,-1.584959 3.809501,-2.357231 1.295547,-1.4563908 1.329167,-2.8887347 0.09506,-4.0611049 C 26.458673,6.3051941 25.67976,5.9990013 24.834161,6.0000024 Z"
     id="path22" />
  <path
     style="fill:#20ebff"
     d="m 15.229477,13.000821 c -0.140092,-0.0041 -0.281624,0.0073 -0.421352,0.03606 -1.109977,0.230264 -1.978936,1.97264 -1.779488,3.568449 0.123659,0.98947 0.967213,2.503737 1.687326,3.028949 0.312633,0.228015 0.719043,0.391088 0.903339,0.36246 0.288641,-0.04486 0.351406,-0.230191 0.453116,-1.336772 0.06492,-0.70654 0.305273,-1.767118 0.533965,-2.356765 0.499068,-1.286749 0.515424,-1.705667 0.09529,-2.453403 -0.285501,-0.508116 -0.86515,-0.829309 -1.472201,-0.848953 z"
     id="path24" />
  <path
     style="opacity:0.2;fill:#ffffff"
     d="M 33 5 A 2 2 0 0 0 31 7 A 2 2 0 0 0 31.064453 7.4980469 A 2 2 0 0 1 33 6.0019531 A 2 2 0 0 1 34.935547 7.5039062 A 2 2 0 0 0 35 7 A 2 2 0 0 0 33 5 z M 24.833984 6 C 24.176306 6.0007679 23.477715 6.1872362 22.773438 6.5625 C 20.144831 7.9631272 18.849998 10.388866 19.013672 13.603516 C 19.014527 13.620327 19.016649 13.635487 19.017578 13.652344 C 19.136636 10.912345 20.412965 8.8222076 22.773438 7.5644531 C 23.477715 7.1891893 24.176306 7.002721 24.833984 7.0019531 C 25.679583 7.000952 26.458033 7.3064495 27.097656 7.9140625 C 27.547607 8.3415038 27.824086 8.8037032 27.9375 9.2890625 C 28.123861 8.435744 27.84874 7.6256194 27.097656 6.9121094 C 26.458033 6.3044964 25.679583 5.9989989 24.833984 6 z M 15.228516 13 C 15.088424 12.9959 14.948322 13.008349 14.808594 13.037109 C 13.698617 13.267373 12.829849 15.00966 13.029297 16.605469 C 13.030997 16.619072 13.039046 16.636593 13.041016 16.650391 C 13.195797 15.378399 13.919703 14.223462 14.808594 14.039062 C 14.948322 14.010253 15.088424 13.997853 15.228516 14.001953 C 15.835567 14.021597 16.415671 14.343447 16.701172 14.851562 C 16.798754 15.025234 16.868094 15.178866 16.917969 15.332031 C 17.057354 14.73918 16.990245 14.364089 16.701172 13.849609 C 16.415671 13.341493 15.835567 13.019644 15.228516 13 z M 30.734375 13.0625 C 29.764049 13.04649 28.650994 13.207661 27.302734 13.664062 C 24.03216 14.745737 22.025316 16.722252 20.548828 18.390625 C 18.53104 21.029026 16.95429 24.322425 15.525391 26.869141 L 15.541016 26.894531 L 11.833984 33.484375 C 10.498165 34.910317 9.0037173 34.454163 7.5859375 33.628906 L 8.1699219 34.941406 C 9.4086944 35.542951 10.680276 35.717873 11.833984 34.486328 L 15.541016 27.896484 L 15.525391 27.871094 C 16.95429 25.324378 18.53104 22.030979 20.548828 19.392578 C 22.025316 17.724205 24.03216 15.74769 27.302734 14.666016 C 28.650994 14.209615 29.764049 14.048443 30.734375 14.064453 C 31.057817 14.069793 31.364961 14.094116 31.660156 14.134766 C 33.01066 14.417242 34.186687 14.77157 34.876953 16.230469 C 35.02497 16.0075 35.099336 15.728581 34.980469 15.4375 C 34.307684 13.78998 33.076689 13.429099 31.660156 13.132812 C 31.364961 13.092163 31.057817 13.06784 30.734375 13.0625 z"
     id="path26" />
</svg>
