<?xml version="1.0" encoding="UTF-8" standalone="no"?>
<!-- Created with Inkscape (http://www.inkscape.org/) -->

<svg
   xmlns:dc="http://purl.org/dc/elements/1.1/"
   xmlns:cc="http://creativecommons.org/ns#"
   xmlns:rdf="http://www.w3.org/1999/02/22-rdf-syntax-ns#"
   xmlns:svg="http://www.w3.org/2000/svg"
   xmlns="http://www.w3.org/2000/svg"
   xmlns:sodipodi="http://sodipodi.sourceforge.net/DTD/sodipodi-0.dtd"
   xmlns:inkscape="http://www.inkscape.org/namespaces/inkscape"
   width="16"
   height="16"
   id="svg2"
   version="1.1"
   inkscape:version="0.91 r13725"
   viewBox="0 0 16 16"
   sodipodi:docname="folder-goliard-16.svg">
  <defs
     id="defs4" />
  <sodipodi:namedview
     id="base"
     pagecolor="#8b8b8b"
     bordercolor="#666666"
     borderopacity="1.0"
     inkscape:pageopacity="0"
     inkscape:pageshadow="2"
     inkscape:zoom="6.433039"
     inkscape:cx="5.7012602"
     inkscape:cy="2.3668434"
     inkscape:document-units="px"
     inkscape:current-layer="layer1"
     showgrid="true"
     inkscape:showpageshadow="false"
     borderlayer="true"
     units="px"
     inkscape:window-width="1366"
     inkscape:window-height="719"
     inkscape:window-x="0"
     inkscape:window-y="22"
     inkscape:window-maximized="1"
     inkscape:snap-global="true"
     inkscape:snap-bbox="true">
    <inkscape:grid
       type="xygrid"
       id="grid4062" />
    <sodipodi:guide
       position="2,2.0000174"
       orientation="0,12"
       id="guide4068" />
    <sodipodi:guide
       position="14,2.0000174"
       orientation="-12,0"
       id="guide4070" />
    <sodipodi:guide
       position="14,14.000017"
       orientation="0,-12"
       id="guide4072" />
  </sodipodi:namedview>
  <metadata
     id="metadata7">
    <rdf:RDF>
      <cc:Work
         rdf:about="">
        <dc:format>image/svg+xml</dc:format>
        <dc:type
           rdf:resource="http://purl.org/dc/dcmitype/StillImage" />
        <dc:title></dc:title>
      </cc:Work>
    </rdf:RDF>
  </metadata>
  <g
     inkscape:label="Capa 1"
     inkscape:groupmode="layer"
     id="layer1"
     transform="translate(0,-1036.3622)">
    <g
       transform="matrix(0.90537551,0,0,0.90537551,-365.91682,562.06022)"
       id="layer1-0"
       inkscape:label="Capa 1"
       style="fill:none;fill-opacity:1;stroke:#4f96d1;stroke-opacity:1" />
    <path
       style="opacity:1;fill:#4d4d4d;fill-opacity:1;stroke:#4d4d4d;stroke-width:0.00905482;stroke-miterlimit:4;stroke-dasharray:none;stroke-opacity:0"
       d="m 5.0415127,1049.9418 c -0.7276812,-0.1539 -1.5234581,-0.6449 -2.0229041,-1.2482 -0.2434951,-0.2941 -0.5298518,-0.8436 -0.6225382,-1.1945 -0.1321078,-0.5002 -0.1122665,-1.3293 0.044754,-1.87 l 0.057748,-0.1988 0.5913873,-0.021 c 1.0109355,-0.035 1.6355532,-0.2667 2.1666012,-0.802 0.4429752,-0.4465 0.6697313,-0.9603 0.7241339,-1.6406 l 0.023686,-0.2962 0.2048341,-0.046 c 0.2723351,-0.061 0.7317588,-0.2884 1.1788503,-0.5837 0.2005277,-0.1324 0.3789966,-0.2263 0.3965968,-0.2087 0.0176,0.018 -0.1345398,0.2767 -0.3380894,0.5759 -0.4697757,0.6903 -0.7493337,1.2428 -0.7799184,1.5412 -0.020404,0.1991 -0.013201,0.2295 0.075346,0.318 0.1129385,0.113 0.3152243,0.1614 0.5243552,0.1257 0.1289282,-0.022 0.3238,-0.2052 1.6900399,-1.588 1.6882297,-1.7087 1.7619877,-1.8005 1.7308317,-2.1542 -0.009,-0.1023 -0.02919,-0.2143 -0.04484,-0.2488 -0.02328,-0.051 0.0031,-0.066 0.145036,-0.082 0.522015,-0.059 1.083978,-0.6186 1.142519,-1.1379 0.01393,-0.1237 0.05221,-0.2006 0.144136,-0.2897 0.122521,-0.1187 0.132072,-0.121 0.451918,-0.1099 l 0.326752,0.011 -0.1652,0.1121 c -0.399108,0.2707 -0.430132,0.7232 -0.04961,0.7235 0.08279,1e-4 0.0989,0.019 0.102508,0.1195 0.0056,0.1566 0.0972,0.243 0.252917,0.2386 0.150765,0 0.283139,-0.096 0.447918,-0.3108 0.0672,-0.088 0.132784,-0.1486 0.145732,-0.1357 0.01295,0.013 0.02354,0.1662 0.02354,0.3406 0,0.2867 -0.0092,0.3257 -0.0957,0.407 -0.06499,0.061 -0.155416,0.095 -0.281748,0.1048 -0.274759,0.022 -0.634617,0.2131 -0.849919,0.4515 -0.197822,0.2191 -0.364619,0.5328 -0.366183,0.6887 -0.0014,0.1377 -0.04748,0.1982 -0.117396,0.1539 -0.0315,-0.02 -0.138337,-0.036 -0.237423,-0.037 -0.3396,0 -0.460562,0.101 -2.1251569,1.7931 -1.5453878,1.571 -1.5544877,1.5812 -1.6026282,1.7963 -0.059602,0.2663 -0.01949,0.432 0.1319299,0.5449 0.090388,0.067 0.1650619,0.082 0.4271604,0.082 0.2745398,0 0.3518886,-0.016 0.5702263,-0.1201 0.1389332,-0.066 0.3702391,-0.2093 0.5140152,-0.3184 0.2677091,-0.2031 0.3786496,-0.2088 0.2332071,-0.012 -0.2316627,0.3133 -0.4203919,0.8516 -0.3899646,1.1123 l 0.015756,0.1349 -0.2580134,0 c -0.315253,0 -0.7898448,0.1168 -1.0602952,0.261 -0.2560045,0.1364 -0.6765593,0.5556 -0.8113253,0.8086 -0.057174,0.1073 -0.1509014,0.3522 -0.2082837,0.544 -0.089169,0.2982 -0.1063712,0.4363 -0.1183663,0.9502 -0.016144,0.6916 0.02712,0.6258 -0.4753154,0.7231 -0.3629751,0.07 -1.1112093,0.066 -1.4636174,-0.01 z"
       id="path3510"
       inkscape:connector-curvature="0" />
  </g>
</svg>
